#N canvas 953 0 958 980 12;
#X obj 51 87 adc~;
#X obj 51 145 *~, f 2;
#X obj 128 86 hsl 162 19 0 127 0 0 empty empty empty -2 -10 0 12 #fcfcfc #000000 #000000 0 1;
#X obj 57 392 oscformat /audio;
#X obj 57 451 list prepend send;
#X obj 57 511 list trim;
#X obj 57 570 netsend -u -b;
#X msg 299 426 connect localhost 8888;
#X msg 299 503 disconnect;
#X obj 299 390 bng 19 250 50 0 empty empty empty 0 -10 0 12 #fcfcfc #000000 #000000;
#X obj 299 464 bng 19 250 50 0 empty empty empty 0 -10 0 12 #fcfcfc #000000 #000000;
#X connect 0 0 1 0;
#X connect 2 0 1 1;
#X connect 3 0 4 0;
#X connect 4 0 5 0;
#X connect 5 0 6 0;
#X connect 7 0 6 0;
#X connect 8 0 6 0;
#X connect 9 0 7 0;
#X connect 10 0 8 0;
