#N canvas 923 202 958 1041 12;
#X obj 22 398 list prepend send;
#X obj 22 458 list trim;
#X obj 22 517 netsend -u -b;
#X msg 259 381 connect localhost 8888;
#X msg 259 458 disconnect;
#X obj 259 345 bng 19 250 50 0 empty empty empty 0 -10 0 12 #fcfcfc #000000 #000000;
#X obj 259 419 bng 19 250 50 0 empty empty empty 0 -10 0 12 #fcfcfc #000000 #000000;
#X obj 396 58 loadbang;
#X msg 396 111 \; pd dsp 1;
#X obj 22 20 adc~;
#X obj 22 161 > 80;
#X obj 22 116 t f f, f 6;
#X obj 22 339 oscformat /audio;
#X floatatom 22 206 5 0 0 0 - - - 0;
#X floatatom 96 207 5 0 0 0 - - - 0;
#X floatatom 22 297 5 0 0 0 - - - 0;
#X obj 22 69 env~;
#X obj 22 253 *;
#X connect 0 0 1 0;
#X connect 1 0 2 0;
#X connect 3 0 2 0;
#X connect 4 0 2 0;
#X connect 5 0 3 0;
#X connect 6 0 4 0;
#X connect 7 0 8 0;
#X connect 9 0 16 0;
#X connect 10 0 13 0;
#X connect 11 0 10 0;
#X connect 11 1 14 0;
#X connect 12 0 0 0;
#X connect 13 0 17 0;
#X connect 14 0 17 1;
#X connect 15 0 12 0;
#X connect 16 0 11 0;
#X connect 17 0 15 0;
